<svg width="153" height="28" viewBox="0 0 153 28" fill="none" xmlns="http://www.w3.org/2000/svg">
<path d="M13.2697 6.06512C12.3913 6.06512 11.6071 6.25116 10.9169 6.62326C10.2268 6.98295 9.63702 7.51008 9.14764 8.20465C8.65826 8.89922 8.28181 9.74884 8.0183 10.7535C7.76733 11.7457 7.64185 12.8744 7.64185 14.1395C7.64185 15.8512 7.86145 17.2899 8.30063 18.4558C8.73982 19.6217 9.40487 20.5023 10.2958 21.0977C11.1993 21.693 12.3286 21.9907 13.6838 21.9907C14.9135 21.9907 16.0931 21.8233 17.2224 21.4884C18.3643 21.1535 19.5124 20.7504 20.6669 20.2791V26.493C19.4497 27.0264 18.2012 27.4109 16.9212 27.6465C15.6539 27.8822 14.3049 28 12.8745 28C9.88798 28 7.44108 27.4171 5.53376 26.2512C3.63898 25.0729 2.23985 23.4419 1.33638 21.3581C0.445461 19.2744 0 16.8558 0 14.1023C0 12.0434 0.288609 10.1581 0.865826 8.44651C1.45559 6.73488 2.31514 5.25271 3.44448 4C4.57382 2.73488 5.96667 1.76124 7.62303 1.07907C9.29194 0.384496 11.1993 0.0372093 13.345 0.0372093C14.6751 0.0372093 16.0742 0.192248 17.5424 0.502326C19.0231 0.8 20.4661 1.28372 21.8715 1.95349L19.594 7.73953C18.5902 7.26822 17.5738 6.87132 16.5448 6.54884C15.5158 6.22636 14.4242 6.06512 13.2697 6.06512Z" fill="black"/>
<path d="M48.0925 27.6279H40.62V16.5395H31.9806V27.6279H24.5081V0.427907H31.9806V10.5116H40.62V0.427907H48.0925V27.6279Z" fill="black"/>
<path d="M78.2661 13.9907C78.2661 16.0868 78.0089 17.9969 77.4944 19.7209C76.9925 21.4326 76.2019 22.9085 75.1228 24.1488C74.0437 25.3891 72.6571 26.3442 70.9631 27.014C69.2691 27.6713 67.2425 28 64.8835 28C62.5746 28 60.5732 27.6713 58.8792 27.014C57.1977 26.3442 55.8111 25.3953 54.7194 24.1674C53.6277 22.9271 52.8184 21.445 52.2914 19.7209C51.7643 17.9969 51.5008 16.0744 51.5008 13.9535C51.5008 11.1256 51.9714 8.66977 52.9125 6.58605C53.8662 4.48992 55.3343 2.87132 57.3169 1.73023C59.2995 0.576744 61.8343 0 64.9211 0C68.0582 0 70.6054 0.576744 72.563 1.73023C74.533 2.88372 75.9761 4.50853 76.8921 6.60465C77.8081 8.70078 78.2661 11.1628 78.2661 13.9907ZM59.3309 13.9907C59.3309 15.6279 59.5191 17.0357 59.8956 18.214C60.272 19.3922 60.868 20.2977 61.6837 20.9302C62.4993 21.5628 63.5659 21.8791 64.8835 21.8791C66.2512 21.8791 67.3366 21.5628 68.1397 20.9302C68.9554 20.2977 69.5388 19.3922 69.8902 18.214C70.2541 17.0357 70.4361 15.6279 70.4361 13.9907C70.4361 11.5349 70.022 9.5938 69.1938 8.16744C68.3656 6.74109 66.9414 6.02791 64.9211 6.02791C63.5785 6.02791 62.493 6.35039 61.6649 6.99535C60.8492 7.64031 60.2532 8.55814 59.8767 9.74884C59.5128 10.9395 59.3309 12.3535 59.3309 13.9907Z" fill="black"/>
<path d="M90.7092 0.427907C93.2063 0.427907 95.283 0.731783 96.9393 1.33953C98.5957 1.93488 99.838 2.82791 100.666 4.0186C101.507 5.2093 101.927 6.69147 101.927 8.46512C101.927 9.56899 101.739 10.5736 101.363 11.4791C100.986 12.3845 100.447 13.1969 99.7439 13.9163C99.0537 14.6233 98.2255 15.2434 97.2593 15.7767L105.278 27.6279H96.8452L91.0103 17.7302H89.1281V27.6279H81.6933V0.427907H90.7092ZM90.5962 5.9907H89.1281V12.2047H90.5209C91.6628 12.2047 92.5977 11.9566 93.3255 11.4605C94.0533 10.9643 94.4172 10.0775 94.4172 8.8C94.4172 7.91938 94.116 7.23101 93.5137 6.73488C92.9114 6.23876 91.9389 5.9907 90.5962 5.9907Z" fill="black"/>
<path d="M131.598 13.4512C131.598 16.614 131.001 19.2434 129.809 21.3395C128.617 23.4357 126.936 25.0109 124.765 26.0651C122.607 27.107 120.066 27.6279 117.142 27.6279H108.239V0.427907H117.763C120.725 0.427907 123.234 0.930233 125.292 1.93488C127.35 2.93953 128.912 4.4093 129.979 6.34419C131.058 8.27907 131.598 10.6481 131.598 13.4512ZM123.88 13.7116C123.88 12.062 123.655 10.6977 123.203 9.6186C122.764 8.52713 122.099 7.71473 121.208 7.1814C120.317 6.63566 119.194 6.36279 117.838 6.36279H115.674V21.6H117.33C119.589 21.6 121.245 20.955 122.299 19.6651C123.353 18.3628 123.88 16.3783 123.88 13.7116Z" fill="black"/>
<path d="M153 19.3674C153 20.8434 152.624 22.245 151.871 23.5721C151.118 24.8868 149.945 25.9535 148.351 26.7721C146.77 27.5907 144.724 28 142.215 28C140.96 28 139.856 27.9442 138.902 27.8326C137.961 27.7209 137.083 27.5411 136.267 27.293C135.451 27.0326 134.604 26.6977 133.726 26.2884V19.7395C135.219 20.4837 136.725 21.0543 138.243 21.4512C139.762 21.8357 141.136 22.0279 142.365 22.0279C143.106 22.0279 143.708 21.9411 144.172 21.7674C144.649 21.5938 145.001 21.3581 145.226 21.0605C145.452 20.7504 145.565 20.3969 145.565 20C145.565 19.5287 145.396 19.1318 145.057 18.8093C144.731 18.4744 144.204 18.1271 143.476 17.7674C142.748 17.4078 141.788 16.9612 140.596 16.4279C139.58 15.9566 138.657 15.4729 137.829 14.9767C137.014 14.4806 136.311 13.9163 135.721 13.2837C135.144 12.6388 134.698 11.8884 134.385 11.0326C134.071 10.1767 133.914 9.16589 133.914 8C133.914 6.25116 134.347 4.7876 135.213 3.6093C136.091 2.4186 137.308 1.52558 138.864 0.930233C140.433 0.334884 142.24 0.0372093 144.285 0.0372093C146.08 0.0372093 147.692 0.235659 149.123 0.632558C150.566 1.02946 151.858 1.48217 153 1.9907L150.723 7.66512C149.543 7.13178 148.382 6.71008 147.24 6.4C146.098 6.07752 145.038 5.91628 144.059 5.91628C143.419 5.91628 142.892 5.9969 142.478 6.15814C142.077 6.30698 141.776 6.51163 141.575 6.77209C141.387 7.03256 141.293 7.33023 141.293 7.66512C141.293 8.08682 141.456 8.46512 141.782 8.8C142.121 9.13488 142.679 9.50078 143.457 9.89767C144.248 10.2822 145.32 10.7845 146.676 11.4047C148.018 12 149.16 12.645 150.101 13.3395C151.042 14.0217 151.758 14.8465 152.247 15.814C152.749 16.769 153 17.9535 153 19.3674Z" fill="black"/>
</svg>
